<svg preserveAspectRatio="none" overflow="visible" style="display: block;" width="13.3333" height="15" viewBox="0 0 13.3333 15" fill="none" xmlns="http://www.w3.org/2000/svg">
<g id="Container">
<path id="Icon" d="M5 15C4.76389 15 4.56597 14.9201 4.40625 14.7604C4.24653 14.6007 4.16667 14.4028 4.16667 14.1667V4.16667H0C0 3.01389 0.40625 2.03125 1.21875 1.21875C2.03125 0.40625 3.01389 0 4.16667 0H9.16667V2.5L11.6667 0H13.3333V6.66667H11.6667L9.16667 4.16667V14.1667C9.16667 14.4028 9.08681 14.6007 8.92708 14.7604C8.76736 14.9201 8.56944 15 8.33333 15H5V15M5.83333 13.3333H7.5V8.33333H6.66667H5.83333V13.3333V13.3333M5.83333 6.66667H7.5V1.66667H4.16667C3.80556 1.66667 3.46528 1.73958 3.14583 1.88542C2.82639 2.03125 2.54861 2.23611 2.3125 2.5H5.83333V6.66667V6.66667M6.66667 7.5V7.5V7.5V7.5V7.5V7.5V7.5V7.5V7.5V7.5V7.5V7.5V7.5V7.5V7.5V7.5V7.5" fill="#020617"/>
</g>
</svg>
